<svg xmlns="http://www.w3.org/2000/svg" xmlns:xlink="http://www.w3.org/1999/xlink" version="1.1" x="0px" y="0px"
     viewBox="10 10 60 60" enable-background="new 0 0 80 80" xml:space="preserve"><g><rect x="30" y="26" fill="#000000" width="4" height="27"/></g>
    <g><path fill="#000000" d="M41,41h-7v-4h7c1.93,0,3.5-1.57,3.5-3.5S42.93,30,41,30h-7v-4h7c4.136,0,7.5,3.364,7.5,7.5S45.136,41,41,41   z"/></g>
    <g><path fill="#000000" d="M41.84,53H34v-4h7.84c2.294,0,4.16-1.794,4.16-4s-1.866-4-4.16-4H34v-4h7.84c4.5,0,8.16,3.589,8.16,8   S46.339,53,41.84,53z"/></g>
</svg>